<svg width="24" height="24" viewBox="0 0 24 24" fill="none" xmlns="http://www.w3.org/2000/svg">
  <defs>
    <linearGradient id="gradient" x1="0%" y1="0%" x2="100%" y2="100%">
      <stop offset="0%" style="stop-color:#4FACFE"/>
      <stop offset="100%" style="stop-color:#00F2FE"/>
    </linearGradient>
  </defs>
  
  <!-- Forge/Anvil base -->
  <rect x="2" y="18" width="20" height="3" rx="1" fill="url(#gradient)" opacity="0.8"/>
  
  <!-- Pixel grid pattern -->
  <rect x="4" y="4" width="3" height="3" fill="url(#gradient)"/>
  <rect x="8" y="4" width="3" height="3" fill="url(#gradient)" opacity="0.7"/>
  <rect x="12" y="4" width="3" height="3" fill="url(#gradient)" opacity="0.9"/>
  <rect x="16" y="4" width="3" height="3" fill="url(#gradient)" opacity="0.6"/>
  
  <rect x="6" y="8" width="3" height="3" fill="url(#gradient)" opacity="0.8"/>
  <rect x="10" y="8" width="3" height="3" fill="url(#gradient)"/>
  <rect x="14" y="8" width="3" height="3" fill="url(#gradient)" opacity="0.7"/>
  
  <rect x="4" y="12" width="3" height="3" fill="url(#gradient)" opacity="0.6"/>
  <rect x="8" y="12" width="3" height="3" fill="url(#gradient)" opacity="0.9"/>
  <rect x="12" y="12" width="3" height="3" fill="url(#gradient)" opacity="0.8"/>
  <rect x="16" y="12" width="3" height="3" fill="url(#gradient)"/>
  
  <!-- Spark/magic effect -->
  <circle cx="18" cy="6" r="1" fill="#FFD700"/>
  <path d="M18 4 L18.5 5.5 L20 6 L18.5 6.5 L18 8 L17.5 6.5 L16 6 L17.5 5.5 Z" fill="#FFD700" opacity="0.8"/>
  <circle cx="6" cy="16" r="0.8" fill="#FFD700" opacity="0.6"/>
  <circle cx="20" cy="14" r="0.6" fill="#FFD700" opacity="0.4"/>
</svg>